<svg width="32" height="32" fill="none" xmlns="http://www.w3.org/2000/svg"><g clip-path="url(#a)"><circle cx="16" cy="16" r="16" fill="#fff"/><path d="M23 13.713h-.82l-1.7-5.236a2.233 2.233 0 0 0-.733-1.07A1.866 1.866 0 0 0 18.6 7H17c-.55 0-1 .503-1 1.119 0 .615.45 1.119 1 1.119h1.6l1.46 4.475h-4.81l-.36-1.12h.09c.55 0 1-.503 1-1.118 0-.615-.45-1.119-1-1.119H12c-.55 0-1 .504-1 1.119s.45 1.119 1 1.119h.75l1.82 5.594h-.67c-.44-2.495-2.31-4.341-4.65-4.464-2.8-.157-5.25 2.45-5.25 5.582C4 22.44 6.2 24.9 9 24.9c2.46 0 4.45-1.89 4.9-4.475h4.2c.44 2.495 2.31 4.34 4.65 4.464 2.8.145 5.25-2.45 5.25-5.594 0-3.121-2.2-5.583-5-5.583Zm-13 6.712h1.82c-.42 1.376-1.6 2.327-3.02 2.226-1.49-.1-2.73-1.51-2.8-3.188-.07-1.958 1.27-3.513 3-3.513 1.33 0 2.42.929 2.82 2.238H10c-.55 0-1 .503-1 1.118 0 .616.45 1.119 1 1.119Zm8.1-2.238h-1.4l-.73-2.237H19a5.614 5.614 0 0 0-.9 2.238Zm4.78 4.476c-1.54-.068-2.84-1.533-2.88-3.267-.02-1.074.39-2.014 1.05-2.64l.62 1.901c.19.582.76.884 1.28.672.52-.213.79-.85.6-1.432l-.63-1.936.01-.011c.4-.015.8.06 1.175.223.373.162.714.407 1.001.721.287.314.514.69.668 1.104.153.414.23.86.226 1.308 0 1.924-1.38 3.424-3.12 3.357Z" fill="url(#b)"/></g><defs><linearGradient id="b" x1="16" y1="7" x2="16" y2="24.9" gradientUnits="userSpaceOnUse"><stop stop-color="#FFB60D"/><stop offset="1" stop-color="#E59317"/></linearGradient><clipPath id="a"><path fill="#fff" d="M0 0h32v32H0z"/></clipPath></defs></svg>